<svg width="1440" height="490" viewBox="0 0 1440 490" fill="none" xmlns="http://www.w3.org/2000/svg">
<path d="M0 22.9166L0 469.036C0 469.036 71.5248 455.951 173.06 469.036C274.595 482.121 260.59 500.38 376.631 469.036C492.671 437.692 542.688 446.213 615.714 450.473C688.739 454.734 897.812 501.597 999.347 487.295C1100.88 472.992 1133.39 447.126 1254.44 450.473C1375.48 453.821 1440 469.036 1440 469.036L1440 22.9166C1440 22.9166 1375.48 7.70105 1254.44 4.35364C1133.39 1.00623 1100.88 26.8727 999.347 41.1752C897.812 55.4778 688.739 8.61398 615.714 4.35364C542.688 0.0932922 492.671 -8.4274 376.631 22.9166C260.59 54.2606 274.595 36.002 173.06 22.9166C71.5248 9.83124 0 22.9166 0 22.9166Z" fill="#222020"/>
</svg>
